<?xml version="1.0" standalone="no"?>
<!DOCTYPE svg PUBLIC "-//W3C//DTD SVG 20010904//EN"
 "http://www.w3.org/TR/2001/REC-SVG-20010904/DTD/svg10.dtd">
<svg version="1.0" xmlns="http://www.w3.org/2000/svg"
 width="100.000000pt" height="100.000000pt" viewBox="0 0 100.000000 100.000000"
 preserveAspectRatio="xMidYMid meet">
<metadata>
Created by potrace 1.14, written by Peter Selinger 2001-2017
</metadata>
<g transform="translate(0.000000,100.000000) scale(0.100000,-0.100000)"
fill="#000000" stroke="none">
<path d="M0 500 l0 -500 500 0 500 0 0 500 0 500 -500 0 -500 0 0 -500z m510
415 c0 -25 -4 -45 -10 -45 -5 0 -10 20 -10 45 0 25 5 45 10 45 6 0 10 -20 10
-45z m-125 -11 c18 -44 19 -57 3 -52 -13 5 -39 74 -31 82 10 10 12 8 28 -30z
m255 30 c0 -19 -24 -84 -32 -84 -11 0 -10 21 3 59 9 27 29 44 29 25z m-337
-136 c-3 -6 -20 5 -39 23 -18 18 -31 36 -27 41 3 6 20 -5 39 -23 18 -18 31
-36 27 -41z m437 32 c-23 -33 -39 -45 -47 -37 -8 9 48 77 58 71 5 -3 0 -18
-11 -34z m-168 -12 c51 -15 126 -82 149 -133 28 -60 26 -169 -4 -225 -15 -28
-32 -46 -48 -51 l-26 -6 32 47 c38 56 48 107 34 169 -42 191 -289 239 -385 75
-56 -95 -42 -192 40 -284 53 -60 70 -98 59 -139 -9 -35 -33 -26 -33 14 0 28
-10 46 -51 91 -66 73 -89 123 -89 199 0 174 158 292 322 243z m-337 -109 c-8
-12 -66 20 -73 39 -3 9 9 7 37 -8 23 -11 39 -25 36 -31z m599 42 c3 -5 -10
-18 -30 -30 -41 -25 -44 -25 -44 -8 0 10 39 37 67 46 1 1 4 -3 7 -8z m-299
-64 c6 -7 65 -194 65 -205 0 -23 -40 -13 -50 13 -8 21 -16 25 -49 25 -31 0
-41 -4 -46 -20 -6 -20 -55 -30 -55 -11 0 15 51 173 62 195 8 14 17 17 41 12
17 -3 31 -7 32 -9z m-347 -67 c12 0 22 -5 22 -11 0 -16 -83 -7 -88 10 -4 10 1
12 19 8 13 -4 34 -7 47 -7z m692 1 c0 -12 -26 -21 -61 -21 -39 0 -37 18 4 23
17 2 38 5 45 5 6 1 12 -2 12 -7z m-670 -120 c0 -16 -70 -35 -82 -23 -8 8 0 14
23 20 45 13 59 14 59 3z m633 -2 c20 -5 37 -14 37 -19 0 -12 -6 -12 -52 1 -21
5 -38 14 -38 19 0 12 6 12 53 -1z m-589 -98 c7 -11 -62 -56 -72 -46 -4 4 7 18
23 31 33 26 41 29 49 15z m541 -13 c35 -23 44 -38 24 -38 -17 0 -80 46 -72 53
9 10 9 10 48 -15z m-465 -64 c0 -13 -42 -74 -51 -74 -13 0 -11 9 12 46 18 30
39 45 39 28z m378 -24 c22 -30 28 -50 15 -50 -9 0 -53 62 -53 73 0 16 18 5 38
-23z m-188 -80 c0 -6 -28 -10 -65 -10 -37 0 -65 4 -65 10 0 6 28 10 65 10 37
0 65 -4 65 -10z m80 -45 c0 -12 -18 -15 -104 -15 -96 0 -126 7 -109 24 3 3 53
6 110 6 85 0 103 -3 103 -15z m-82 -42 c3 -10 -13 -13 -57 -13 -57 0 -71 6
-54 24 12 12 106 2 111 -11z m42 -48 c0 -12 -13 -15 -59 -15 -56 0 -79 9 -64
24 3 3 33 6 65 6 45 0 58 -3 58 -15z m-45 -35 c3 -6 -1 -13 -10 -16 -19 -8
-30 0 -20 15 8 14 22 14 30 1z"/>
<path d="M486 617 c-3 -14 -9 -32 -12 -41 -5 -12 0 -16 21 -16 26 0 27 2 21
32 -9 44 -22 55 -30 25z"/>
</g>
</svg>
